<?xml version="1.0" standalone="no"?>
<svg
  width="600"
  height="600"
  viewBox="0 0 600 600"
  xmlns="http://www.w3.org/2000/svg"
>
  <g transform="translate(300,300)">
    <path d="M132,-202.7C173.5,-178.7,211.4,-146.3,236.6,-104.2C261.8,-62.1,274.4,-10.4,268.3,39.2C262.2,88.9,237.3,136.4,199.7,164.4C162,192.4,111.7,200.8,63.5,213.8C15.3,226.8,-30.8,244.4,-73.3,237.4C-115.8,230.5,-154.6,199.1,-180.7,161C-206.8,123,-220.2,78.3,-232.2,30.1C-244.3,-18,-254.9,-69.7,-241.1,-114.2C-227.2,-158.8,-188.7,-196.3,-144.5,-219.1C-100.2,-241.9,-50.1,-250,-2.4,-246.2C45.2,-242.4,90.5,-226.8,132,-202.7Z" fill="#008148" />
  </g>
</svg>
  